<?xml version="1.0" encoding="UTF-8"?>
<svg xmlns="http://www.w3.org/2000/svg" xmlns:xlink="http://www.w3.org/1999/xlink" width="195px" height="130px" viewBox="0 0 195 130" version="1.1">
<g id="surface1">
<path style=" stroke:none;fill-rule:nonzero;fill:rgb(100%,100%,100%);fill-opacity:1;" d="M 96.613281 16.535156 C 96.191406 16.589844 95.515625 16.640625 95.109375 16.648438 C 93.761719 16.664062 92.625 16.746094 92.398438 16.828125 C 92.277344 16.875 91.8125 16.949219 91.375 16.988281 C 90.925781 17.023438 90.398438 17.109375 90.195312 17.175781 C 89.992188 17.242188 89.570312 17.324219 89.253906 17.347656 C 88.945312 17.378906 88.539062 17.453125 88.359375 17.507812 C 88.179688 17.566406 87.855469 17.640625 87.644531 17.671875 C 87.433594 17.695312 87.140625 17.769531 86.996094 17.835938 C 86.847656 17.890625 86.53125 17.964844 86.289062 17.996094 C 86.042969 18.03125 85.742188 18.109375 85.621094 18.167969 C 85.5 18.234375 85.320312 18.28125 85.214844 18.28125 C 85.109375 18.289062 84.882812 18.347656 84.703125 18.410156 C 84.523438 18.484375 84.199219 18.574219 83.980469 18.621094 C 83.753906 18.664062 83.5 18.753906 83.410156 18.816406 C 83.320312 18.882812 83.160156 18.929688 83.054688 18.929688 C 82.949219 18.929688 82.753906 18.988281 82.613281 19.0625 C 82.476562 19.132812 82.199219 19.238281 81.988281 19.296875 C 81.332031 19.492188 80.8125 19.671875 80.574219 19.792969 C 80.445312 19.847656 80.292969 19.90625 80.21875 19.90625 C 80.152344 19.90625 80 19.953125 79.886719 20.019531 C 79.761719 20.085938 79.429688 20.238281 79.136719 20.351562 C 78.84375 20.476562 78.464844 20.636719 78.285156 20.71875 C 78.105469 20.800781 77.738281 20.960938 77.472656 21.085938 C 76.917969 21.328125 75.125 22.230469 74.613281 22.515625 C 73.472656 23.15625 71.890625 24.125 71.679688 24.316406 C 71.597656 24.390625 71.492188 24.457031 71.441406 24.457031 C 71.394531 24.457031 71.183594 24.59375 70.964844 24.757812 C 70.746094 24.925781 70.507812 25.097656 70.4375 25.148438 C 70.046875 25.382812 69.28125 25.917969 68.820312 26.285156 C 68.527344 26.511719 68.203125 26.753906 68.085938 26.828125 C 67.972656 26.894531 67.796875 27.039062 67.679688 27.144531 C 67.566406 27.25 67.234375 27.535156 66.949219 27.78125 C 66.65625 28.015625 66.136719 28.476562 65.796875 28.8125 C 65.171875 29.414062 64.984375 29.511719 64.863281 29.296875 C 64.78125 29.152344 64.300781 28.582031 63.976562 28.242188 C 63.839844 28.097656 63.667969 27.894531 63.601562 27.796875 C 63.449219 27.585938 62.804688 26.851562 62.117188 26.105469 C 61.847656 25.8125 61.5 25.429688 61.34375 25.246094 C 61.082031 24.945312 60.050781 23.78125 59.3125 22.960938 C 59.15625 22.789062 58.882812 22.488281 58.703125 22.304688 C 58.523438 22.117188 58.101562 21.636719 57.769531 21.246094 C 57.4375 20.855469 57.070312 20.433594 56.957031 20.3125 C 56.84375 20.191406 56.550781 19.867188 56.304688 19.582031 C 56.0625 19.296875 55.800781 19.011719 55.738281 18.9375 C 55.632812 18.824219 55.25 18.378906 54.25 17.199219 C 54.046875 16.957031 53.949219 16.90625 53.804688 16.941406 C 53.625 16.980469 52.8125 17.71875 52.8125 17.84375 C 52.8125 17.921875 53.609375 18.867188 54.527344 19.859375 C 55.695312 21.140625 56.128906 21.613281 56.429688 21.976562 C 56.605469 22.1875 56.828125 22.449219 56.914062 22.546875 C 57.003906 22.652344 57.28125 22.960938 57.523438 23.238281 C 57.769531 23.515625 58.230469 24.027344 58.539062 24.367188 C 58.859375 24.714844 59.3125 25.21875 59.554688 25.503906 C 59.800781 25.78125 60.042969 26.058594 60.085938 26.105469 C 60.15625 26.1875 61.328125 27.480469 61.832031 28.039062 C 61.894531 28.113281 62.15625 28.40625 62.398438 28.6875 C 62.644531 28.972656 63.074219 29.4375 63.359375 29.730469 C 63.636719 30.015625 63.863281 30.3125 63.863281 30.394531 C 63.863281 30.46875 63.328125 31.078125 62.667969 31.746094 C 61.570312 32.847656 59.863281 34.757812 59.6875 35.082031 C 59.644531 35.164062 59.484375 35.375 59.320312 35.5625 C 59.15625 35.75 58.953125 36 58.867188 36.117188 C 58.777344 36.238281 58.644531 36.398438 58.582031 36.472656 C 58.515625 36.546875 58.320312 36.804688 58.152344 37.050781 C 57.988281 37.292969 57.703125 37.699219 57.515625 37.945312 C 57.339844 38.1875 57.136719 38.480469 57.0625 38.59375 C 56.875 38.871094 56.128906 40.054688 56.003906 40.257812 C 55.949219 40.347656 55.695312 40.78125 55.4375 41.21875 C 55.175781 41.65625 54.882812 42.152344 54.785156 42.316406 C 54.679688 42.476562 54.566406 42.703125 54.519531 42.820312 C 54.476562 42.933594 54.398438 43.078125 54.355469 43.144531 C 54.308594 43.207031 54.21875 43.378906 54.152344 43.527344 C 54.089844 43.664062 54 43.800781 53.957031 43.828125 C 53.917969 43.851562 53.859375 43.972656 53.828125 44.09375 C 53.804688 44.222656 53.632812 44.621094 53.453125 44.980469 C 53.285156 45.34375 53.136719 45.679688 53.136719 45.71875 C 53.136719 45.769531 53.089844 45.847656 53.023438 45.898438 C 52.957031 45.953125 52.878906 46.117188 52.84375 46.253906 C 52.8125 46.402344 52.722656 46.644531 52.640625 46.800781 C 52.550781 46.953125 52.488281 47.140625 52.488281 47.214844 C 52.488281 47.289062 52.4375 47.394531 52.375 47.441406 C 52.308594 47.5 52.234375 47.660156 52.203125 47.800781 C 52.179688 47.945312 52.089844 48.222656 52.007812 48.425781 C 51.722656 49.117188 51.609375 49.441406 51.390625 50.171875 C 51.277344 50.570312 51.121094 51.03125 51.058594 51.1875 C 50.992188 51.34375 50.910156 51.632812 50.871094 51.835938 C 50.828125 52.039062 50.742188 52.347656 50.667969 52.527344 C 50.601562 52.707031 50.546875 52.976562 50.539062 53.121094 C 50.539062 53.265625 50.480469 53.496094 50.414062 53.625 C 50.351562 53.753906 50.261719 54.089844 50.210938 54.371094 C 50.171875 54.65625 50.082031 55.085938 50.007812 55.332031 C 49.945312 55.574219 49.886719 55.890625 49.886719 56.03125 C 49.886719 56.167969 49.839844 56.429688 49.773438 56.597656 C 49.71875 56.777344 49.636719 57.191406 49.601562 57.523438 C 49.570312 57.859375 49.496094 58.386719 49.433594 58.703125 C 49.375 59.011719 49.285156 59.816406 49.238281 60.492188 C 49.1875 61.15625 49.117188 62.164062 49.074219 62.726562 C 48.984375 63.976562 48.984375 66.4375 49.074219 67.964844 C 49.222656 70.4375 49.320312 71.566406 49.433594 72.109375 C 49.496094 72.417969 49.570312 72.929688 49.601562 73.246094 C 49.628906 73.554688 49.699219 73.996094 49.765625 74.222656 C 49.824219 74.441406 49.902344 74.832031 49.929688 75.074219 C 49.960938 75.320312 50.027344 75.683594 50.089844 75.886719 C 50.148438 76.089844 50.21875 76.449219 50.253906 76.691406 C 50.277344 76.9375 50.34375 77.210938 50.390625 77.300781 C 50.441406 77.398438 50.53125 77.707031 50.578125 78 C 50.636719 78.292969 50.714844 78.632812 50.765625 78.773438 C 50.8125 78.902344 50.894531 79.179688 50.945312 79.382812 C 51.121094 80.097656 51.269531 80.558594 51.390625 80.820312 C 51.457031 80.957031 51.511719 81.160156 51.511719 81.265625 C 51.511719 81.371094 51.585938 81.597656 51.675781 81.777344 C 51.765625 81.957031 51.835938 82.152344 51.835938 82.226562 C 51.835938 82.289062 51.910156 82.484375 52 82.65625 C 52.089844 82.816406 52.164062 83.019531 52.164062 83.101562 C 52.164062 83.175781 52.234375 83.378906 52.324219 83.550781 C 52.414062 83.710938 52.488281 83.90625 52.488281 83.980469 C 52.488281 84.054688 52.550781 84.25 52.640625 84.410156 C 52.789062 84.695312 53.128906 85.425781 53.339844 85.921875 C 53.949219 87.3125 55.785156 90.757812 55.980469 90.878906 C 56.03125 90.902344 56.0625 91 56.0625 91.082031 C 56.0625 91.164062 56.128906 91.292969 56.199219 91.375 C 56.347656 91.519531 56.371094 91.550781 56.695312 92.105469 C 56.792969 92.285156 57.109375 92.746094 57.402344 93.152344 C 57.695312 93.550781 57.972656 93.964844 58.011719 94.0625 C 58.054688 94.160156 58.140625 94.308594 58.214844 94.386719 C 58.53125 94.761719 58.914062 95.234375 59.34375 95.816406 C 59.613281 96.160156 59.90625 96.53125 59.996094 96.640625 C 60.09375 96.734375 60.296875 96.988281 60.449219 97.183594 C 60.773438 97.597656 61.027344 97.882812 61.742188 98.628906 C 62.027344 98.921875 62.496094 99.441406 62.796875 99.773438 C 63.300781 100.335938 64.097656 101.125 64.457031 101.40625 C 64.535156 101.472656 64.855469 101.757812 65.15625 102.050781 C 66.363281 103.203125 68.421875 104.859375 69.632812 105.664062 C 69.835938 105.796875 70.054688 105.964844 70.136719 106.03125 C 70.378906 106.25 70.492188 106.332031 70.695312 106.4375 C 70.890625 106.542969 71.320312 106.820312 72.265625 107.429688 C 72.523438 107.597656 72.785156 107.738281 72.847656 107.738281 C 72.90625 107.738281 72.988281 107.785156 73.019531 107.84375 C 73.125 108.023438 74.613281 108.867188 76.132812 109.605469 C 76.601562 109.832031 77.042969 110.054688 77.105469 110.101562 C 77.171875 110.140625 77.316406 110.214844 77.429688 110.265625 C 77.546875 110.3125 77.78125 110.425781 77.96875 110.507812 C 78.15625 110.597656 78.339844 110.664062 78.382812 110.664062 C 78.429688 110.664062 78.511719 110.710938 78.5625 110.777344 C 78.617188 110.839844 78.78125 110.921875 78.917969 110.953125 C 79.0625 110.988281 79.308594 111.078125 79.460938 111.15625 C 79.617188 111.246094 79.804688 111.3125 79.867188 111.3125 C 79.941406 111.3125 80.078125 111.371094 80.1875 111.441406 C 80.292969 111.515625 80.484375 111.605469 80.632812 111.644531 C 80.769531 111.679688 81.144531 111.808594 81.453125 111.921875 C 81.769531 112.035156 82.371094 112.246094 82.792969 112.375 C 83.214844 112.515625 83.679688 112.675781 83.808594 112.742188 C 83.949219 112.800781 84.214844 112.871094 84.417969 112.90625 C 84.621094 112.929688 84.867188 113.003906 84.964844 113.066406 C 85.0625 113.125 85.296875 113.207031 85.492188 113.230469 C 85.6875 113.261719 86.019531 113.351562 86.230469 113.433594 C 86.441406 113.523438 86.734375 113.585938 86.878906 113.585938 C 87.027344 113.585938 87.351562 113.660156 87.613281 113.75 C 87.863281 113.839844 88.222656 113.914062 88.398438 113.914062 C 88.578125 113.914062 88.855469 113.960938 89.007812 114.027344 C 89.164062 114.089844 89.585938 114.171875 89.960938 114.195312 C 90.332031 114.230469 90.78125 114.300781 90.960938 114.367188 C 91.242188 114.472656 91.902344 114.546875 94.777344 114.804688 C 97.3125 115.035156 103.535156 114.824219 105.828125 114.433594 C 106.234375 114.359375 106.835938 114.269531 107.167969 114.230469 C 107.5 114.1875 107.941406 114.097656 108.144531 114.042969 C 108.347656 113.976562 108.730469 113.90625 108.996094 113.878906 C 109.273438 113.855469 109.621094 113.78125 109.792969 113.710938 C 109.957031 113.644531 110.199219 113.585938 110.335938 113.585938 C 110.476562 113.585938 110.71875 113.53125 110.890625 113.457031 C 111.050781 113.382812 111.394531 113.277344 111.636719 113.222656 C 112.449219 113.027344 113.058594 112.847656 113.304688 112.734375 C 113.441406 112.675781 113.703125 112.605469 113.886719 112.570312 C 114.074219 112.546875 114.269531 112.464844 114.328125 112.402344 C 114.375 112.335938 114.539062 112.289062 114.675781 112.289062 C 114.8125 112.28125 115.074219 112.214844 115.253906 112.125 C 115.433594 112.035156 115.636719 111.96875 115.699219 111.960938 C 115.765625 111.960938 115.960938 111.890625 116.128906 111.800781 C 116.292969 111.710938 116.488281 111.636719 116.554688 111.636719 C 116.625 111.636719 116.820312 111.5625 116.984375 111.476562 C 117.472656 111.222656 118.015625 110.988281 118.128906 110.988281 C 118.1875 110.988281 118.375 110.914062 118.535156 110.832031 C 119.121094 110.515625 121.550781 109.363281 121.613281 109.363281 C 121.65625 109.363281 121.753906 109.289062 121.835938 109.199219 C 121.914062 109.109375 122.011719 109.039062 122.054688 109.039062 C 122.125 109.039062 124.238281 107.820312 124.882812 107.414062 C 125.085938 107.28125 125.449219 107.054688 125.695312 106.917969 C 126.214844 106.601562 126.539062 106.363281 127.992188 105.226562 C 128.578125 104.765625 129.113281 104.316406 129.171875 104.226562 C 129.34375 103.992188 129.4375 104.058594 130 104.746094 C 130.292969 105.097656 130.746094 105.640625 131.015625 105.941406 C 131.285156 106.242188 131.761719 106.777344 132.070312 107.128906 C 132.390625 107.476562 132.730469 107.859375 132.84375 107.972656 C 132.957031 108.085938 133.226562 108.402344 133.4375 108.671875 C 133.648438 108.941406 133.980469 109.320312 134.167969 109.523438 C 134.828125 110.230469 136.703125 112.320312 137.0625 112.742188 C 137.175781 112.871094 137.515625 113.269531 137.824219 113.628906 C 138.140625 113.984375 138.53125 114.464844 138.703125 114.699219 C 139.171875 115.335938 139.253906 115.335938 139.894531 114.667969 C 140.367188 114.164062 140.34375 114.066406 139.613281 113.296875 C 138.890625 112.539062 138.140625 111.734375 137.960938 111.507812 C 137.671875 111.140625 137.003906 110.355469 136.726562 110.054688 C 136.566406 109.875 136.222656 109.484375 135.957031 109.191406 C 135.25 108.394531 134.445312 107.492188 134.296875 107.339844 C 134.234375 107.265625 133.925781 106.917969 133.617188 106.558594 C 132.925781 105.746094 132.308594 105.074219 131.332031 104.074219 L 130.578125 103.300781 L 130.714844 103.082031 C 130.796875 102.96875 130.984375 102.773438 131.136719 102.644531 C 132.722656 101.375 135.734375 98.28125 136.597656 97.054688 C 136.628906 97.003906 136.792969 96.808594 136.972656 96.605469 C 137.3125 96.199219 137.824219 95.558594 138.351562 94.84375 C 138.539062 94.582031 138.90625 94.085938 139.164062 93.746094 C 139.417969 93.40625 139.742188 92.949219 139.871094 92.738281 C 140.011719 92.527344 140.214844 92.203125 140.335938 92.023438 C 140.457031 91.835938 140.609375 91.578125 140.675781 91.445312 C 140.8125 91.1875 140.871094 91.089844 141.269531 90.503906 C 141.414062 90.292969 141.585938 89.992188 141.660156 89.847656 C 141.722656 89.699219 141.925781 89.316406 142.105469 89.007812 C 142.285156 88.691406 142.488281 88.328125 142.554688 88.195312 C 142.617188 88.058594 142.714844 87.894531 142.757812 87.832031 C 142.804688 87.765625 142.871094 87.621094 142.917969 87.507812 C 142.960938 87.390625 143.03125 87.246094 143.074219 87.179688 C 143.195312 86.984375 143.570312 86.140625 143.570312 86.058594 C 143.570312 86.019531 143.617188 85.9375 143.683594 85.890625 C 143.746094 85.832031 143.828125 85.671875 143.851562 85.53125 C 143.886719 85.386719 143.984375 85.15625 144.0625 85.019531 C 144.144531 84.882812 144.21875 84.695312 144.21875 84.605469 C 144.21875 84.507812 144.265625 84.394531 144.332031 84.34375 C 144.398438 84.289062 144.480469 84.125 144.511719 83.988281 C 144.542969 83.84375 144.632812 83.597656 144.714844 83.445312 C 144.804688 83.289062 144.867188 83.101562 144.867188 83.039062 C 144.867188 82.964844 144.917969 82.835938 144.984375 82.746094 C 145.046875 82.65625 145.121094 82.4375 145.152344 82.257812 C 145.1875 82.085938 145.257812 81.859375 145.324219 81.761719 C 145.378906 81.664062 145.46875 81.445312 145.511719 81.273438 C 145.617188 80.875 145.828125 80.234375 145.972656 79.867188 C 146.039062 79.714844 146.128906 79.398438 146.160156 79.179688 C 146.203125 78.949219 146.289062 78.625 146.363281 78.445312 C 146.429688 78.269531 146.484375 78.03125 146.492188 77.917969 C 146.492188 77.804688 146.550781 77.609375 146.617188 77.480469 C 146.679688 77.351562 146.761719 77.042969 146.785156 76.789062 C 146.820312 76.539062 146.90625 76.066406 146.988281 75.734375 C 147.078125 75.398438 147.144531 75.011719 147.144531 74.863281 C 147.144531 74.71875 147.199219 74.433594 147.265625 74.246094 C 147.332031 74.050781 147.421875 73.546875 147.46875 73.125 C 147.507812 72.703125 147.589844 72.191406 147.632812 71.988281 C 147.867188 70.972656 148.085938 65.535156 147.972656 63.667969 C 147.777344 60.578125 147.710938 59.75 147.597656 59.191406 C 147.535156 58.875 147.453125 58.386719 147.429688 58.09375 C 147.402344 57.800781 147.347656 57.453125 147.296875 57.304688 C 147.257812 57.167969 147.167969 56.746094 147.101562 56.371094 C 147.046875 56.003906 146.957031 55.550781 146.90625 55.371094 C 146.738281 54.730469 146.566406 53.984375 146.484375 53.550781 C 146.445312 53.316406 146.355469 53.015625 146.289062 52.886719 C 146.226562 52.765625 146.167969 52.550781 146.167969 52.429688 C 146.160156 52.308594 146.105469 52.058594 146.039062 51.878906 C 145.964844 51.699219 145.875 51.390625 145.828125 51.1875 C 145.777344 50.984375 145.699219 50.75 145.640625 50.660156 C 145.582031 50.570312 145.511719 50.34375 145.476562 50.15625 C 145.453125 49.976562 145.371094 49.757812 145.316406 49.667969 C 145.25 49.585938 145.195312 49.449219 145.195312 49.359375 C 145.195312 49.269531 145.128906 49.066406 145.039062 48.914062 C 144.957031 48.757812 144.867188 48.5 144.835938 48.335938 C 144.804688 48.164062 144.730469 47.996094 144.671875 47.945312 C 144.609375 47.890625 144.535156 47.71875 144.503906 47.546875 C 144.46875 47.386719 144.40625 47.15625 144.347656 47.042969 C 144.054688 46.457031 143.894531 46.101562 143.894531 46.042969 C 143.894531 45.972656 143.511719 45.109375 143.398438 44.929688 C 143.359375 44.867188 143.300781 44.753906 143.277344 44.6875 C 143.164062 44.425781 142.414062 42.925781 142.203125 42.535156 C 142.082031 42.308594 141.820312 41.835938 141.625 41.476562 C 141.433594 41.121094 141.230469 40.769531 141.179688 40.707031 C 141.125 40.640625 140.953125 40.363281 140.804688 40.097656 C 140.652344 39.828125 140.417969 39.4375 140.269531 39.234375 C 140.132812 39.03125 139.984375 38.789062 139.960938 38.691406 C 139.929688 38.59375 139.863281 38.511719 139.824219 38.511719 C 139.78125 38.511719 139.710938 38.421875 139.667969 38.308594 C 139.585938 38.105469 139.269531 37.617188 139.164062 37.539062 C 139.132812 37.511719 138.945312 37.246094 138.734375 36.9375 C 138.238281 36.1875 138.109375 36.027344 136.90625 34.5625 C 135.070312 32.320312 130.820312 28.03125 130.445312 28.03125 C 130.414062 28.03125 130.308594 27.949219 130.210938 27.84375 C 130.113281 27.746094 129.886719 27.550781 129.714844 27.40625 C 129.535156 27.257812 129.277344 27.046875 129.140625 26.933594 C 128.992188 26.820312 128.847656 26.730469 128.804688 26.730469 C 128.765625 26.730469 128.644531 26.632812 128.53125 26.519531 C 128.421875 26.40625 128.097656 26.144531 127.804688 25.953125 C 126.132812 24.8125 125.472656 24.367188 124.832031 23.960938 C 123.816406 23.320312 121.816406 22.179688 121.703125 22.179688 C 121.648438 22.179688 121.542969 22.132812 121.476562 22.066406 C 121.402344 22.003906 121.144531 21.855469 120.898438 21.734375 C 120.65625 21.613281 120.394531 21.484375 120.332031 21.441406 C 120.265625 21.402344 120.121094 21.328125 120.007812 21.28125 C 119.890625 21.230469 119.699219 21.140625 119.558594 21.085938 C 119.429688 21.019531 119.097656 20.875 118.828125 20.757812 C 118.558594 20.644531 118.285156 20.515625 118.210938 20.476562 C 118.136719 20.433594 117.773438 20.289062 117.398438 20.140625 C 117.023438 20.003906 116.570312 19.816406 116.382812 19.734375 C 116.203125 19.644531 116.007812 19.582031 115.960938 19.582031 C 115.902344 19.582031 115.722656 19.507812 115.5625 19.417969 C 115.390625 19.328125 115.1875 19.257812 115.105469 19.257812 C 115.027344 19.257812 114.824219 19.183594 114.644531 19.09375 C 114.464844 19.003906 114.253906 18.929688 114.164062 18.929688 C 114.082031 18.929688 113.855469 18.859375 113.660156 18.769531 C 113.464844 18.679688 113.1875 18.605469 113.058594 18.605469 C 112.921875 18.605469 112.734375 18.550781 112.636719 18.484375 C 112.546875 18.417969 112.3125 18.347656 112.117188 18.3125 C 111.921875 18.28125 111.546875 18.191406 111.296875 18.109375 C 111.035156 18.019531 110.742188 17.957031 110.644531 17.957031 C 110.539062 17.957031 110.222656 17.890625 109.929688 17.800781 C 109.125 17.558594 107.964844 17.304688 107.65625 17.304688 C 107.5 17.304688 107.210938 17.257812 107.007812 17.191406 C 106.804688 17.136719 106.292969 17.054688 105.867188 17.023438 C 105.445312 16.988281 104.878906 16.917969 104.609375 16.859375 C 104.339844 16.792969 103.578125 16.722656 102.902344 16.695312 C 102.238281 16.664062 101.035156 16.589844 100.238281 16.527344 C 98.53125 16.386719 97.65625 16.394531 96.613281 16.535156 Z M 100.359375 18.117188 C 100.683594 18.160156 101.667969 18.234375 102.539062 18.28125 C 103.40625 18.320312 104.359375 18.402344 104.648438 18.453125 C 104.941406 18.5 105.601562 18.582031 106.113281 18.648438 C 106.625 18.703125 107.160156 18.792969 107.289062 18.84375 C 107.429688 18.890625 107.867188 18.980469 108.265625 19.054688 C 109.53125 19.265625 110.125 19.394531 110.523438 19.53125 C 110.734375 19.605469 110.980469 19.664062 111.070312 19.664062 C 111.148438 19.664062 111.320312 19.703125 111.449219 19.761719 C 111.671875 19.847656 112.289062 20.035156 113.019531 20.230469 C 113.222656 20.289062 113.554688 20.402344 113.765625 20.484375 C 113.976562 20.574219 114.203125 20.636719 114.269531 20.636719 C 114.34375 20.636719 114.539062 20.710938 114.699219 20.800781 C 114.871094 20.890625 115.066406 20.960938 115.132812 20.960938 C 115.203125 20.960938 115.328125 21.011719 115.414062 21.078125 C 115.503906 21.132812 115.667969 21.214844 115.78125 21.238281 C 116.203125 21.359375 116.902344 21.644531 117.535156 21.945312 C 117.902344 22.125 118.226562 22.261719 118.265625 22.261719 C 118.332031 22.261719 118.753906 22.449219 119.273438 22.710938 C 119.390625 22.765625 119.972656 23.058594 120.574219 23.367188 C 121.175781 23.667969 121.730469 23.960938 121.792969 24.015625 C 121.859375 24.074219 122.152344 24.238281 122.445312 24.390625 C 122.734375 24.539062 123.132812 24.773438 123.335938 24.910156 C 123.539062 25.050781 123.996094 25.332031 124.351562 25.546875 C 124.710938 25.757812 125.207031 26.074219 125.449219 26.25 C 125.695312 26.429688 126.101562 26.707031 126.34375 26.871094 C 126.585938 27.03125 126.847656 27.21875 126.914062 27.277344 C 126.976562 27.332031 127.515625 27.746094 128.089844 28.203125 C 130.277344 29.917969 130.765625 30.347656 132.59375 32.183594 C 133.792969 33.386719 134.304688 33.953125 135.039062 34.871094 C 135.265625 35.15625 135.574219 35.53125 135.726562 35.710938 C 136.425781 36.503906 136.523438 36.621094 136.742188 36.929688 C 136.867188 37.105469 137.207031 37.578125 137.507812 37.976562 C 137.800781 38.375 138.042969 38.730469 138.042969 38.773438 C 138.042969 38.8125 138.164062 39 138.320312 39.1875 C 138.464844 39.375 138.695312 39.707031 138.824219 39.933594 C 138.945312 40.152344 139.074219 40.355469 139.101562 40.382812 C 139.179688 40.453125 139.816406 41.484375 139.945312 41.769531 C 140.019531 41.925781 140.164062 42.191406 140.269531 42.371094 C 140.601562 42.933594 140.71875 43.136719 140.855469 43.402344 C 140.921875 43.550781 141.007812 43.730469 141.050781 43.792969 C 141.132812 43.933594 141.78125 45.25 142.21875 46.15625 C 142.382812 46.492188 142.511719 46.800781 142.511719 46.839844 C 142.511719 46.882812 142.585938 47.066406 142.675781 47.261719 C 143.023438 48.019531 143.144531 48.3125 143.203125 48.507812 C 143.226562 48.621094 143.300781 48.816406 143.367188 48.953125 C 143.585938 49.457031 144.015625 50.699219 144.144531 51.21875 C 144.1875 51.390625 144.277344 51.625 144.332031 51.75 C 144.398438 51.863281 144.46875 52.121094 144.503906 52.324219 C 144.535156 52.527344 144.617188 52.789062 144.671875 52.910156 C 144.738281 53.03125 144.789062 53.210938 144.789062 53.316406 C 144.796875 53.421875 144.851562 53.648438 144.917969 53.828125 C 144.984375 54.007812 145.089844 54.40625 145.152344 54.722656 C 145.210938 55.03125 145.300781 55.4375 145.347656 55.617188 C 145.566406 56.484375 145.761719 57.460938 145.8125 57.972656 C 145.84375 58.28125 145.902344 58.628906 145.941406 58.742188 C 145.980469 58.859375 146.054688 59.417969 146.09375 60.003906 C 146.136719 60.578125 146.234375 61.367188 146.296875 61.75 C 146.453125 62.570312 146.476562 68.039062 146.339844 69.0625 C 146.289062 69.394531 146.203125 70.339844 146.128906 71.152344 C 146.0625 71.972656 145.980469 72.703125 145.941406 72.777344 C 145.902344 72.855469 145.835938 73.171875 145.8125 73.492188 C 145.777344 73.800781 145.699219 74.261719 145.640625 74.507812 C 145.527344 74.9375 145.390625 75.570312 145.195312 76.539062 C 145.144531 76.78125 145.0625 77.089844 145.015625 77.226562 C 144.964844 77.359375 144.886719 77.707031 144.820312 78 C 144.714844 78.527344 144.59375 78.949219 144.292969 79.769531 C 144.210938 80.015625 144.136719 80.292969 144.136719 80.390625 C 144.136719 80.484375 144.089844 80.632812 144.023438 80.722656 C 143.96875 80.8125 143.886719 81.015625 143.851562 81.167969 C 143.820312 81.324219 143.722656 81.582031 143.640625 81.738281 C 143.550781 81.890625 143.488281 82.078125 143.488281 82.144531 C 143.488281 82.21875 143.414062 82.410156 143.324219 82.589844 C 143.234375 82.769531 143.164062 82.964844 143.164062 83.039062 C 143.164062 83.109375 143.113281 83.234375 143.058594 83.320312 C 143 83.410156 142.828125 83.792969 142.683594 84.167969 C 142.535156 84.539062 142.390625 84.90625 142.351562 84.980469 C 142.308594 85.050781 142.1875 85.328125 142.066406 85.597656 C 141.953125 85.863281 141.820312 86.140625 141.78125 86.207031 C 141.742188 86.269531 141.496094 86.726562 141.246094 87.222656 C 140.992188 87.710938 140.726562 88.222656 140.652344 88.359375 C 140.148438 89.277344 139.832031 89.804688 139.464844 90.34375 C 139.238281 90.683594 139.027344 91.015625 139.003906 91.082031 C 138.9375 91.242188 137.988281 92.664062 137.605469 93.160156 C 136.988281 93.972656 136.460938 94.679688 136.378906 94.792969 C 136.335938 94.859375 136.175781 95.046875 136.035156 95.207031 C 135.890625 95.371094 135.671875 95.648438 135.550781 95.828125 C 135.425781 96.011719 135.25 96.234375 135.160156 96.328125 C 135.070312 96.417969 134.761719 96.769531 134.46875 97.09375 C 133.5 98.191406 132.59375 99.148438 131.1875 100.5625 C 129.660156 102.105469 129.601562 102.132812 129.246094 101.601562 C 129.03125 101.292969 128.480469 100.652344 127.675781 99.792969 C 127.351562 99.441406 126.960938 99.003906 126.789062 98.800781 C 126.628906 98.597656 126.304688 98.230469 126.066406 97.980469 C 125.570312 97.433594 124.996094 96.800781 124.71875 96.476562 C 124.605469 96.347656 124.222656 95.90625 123.867188 95.507812 C 123.507812 95.101562 123.109375 94.65625 122.972656 94.5 C 122.84375 94.355469 122.582031 94.070312 122.402344 93.875 C 122.222656 93.6875 121.875 93.300781 121.632812 93.023438 C 120.324219 91.527344 119.324219 90.40625 119.0625 90.15625 C 118.972656 90.058594 118.625 89.675781 118.292969 89.300781 C 117.957031 88.929688 117.601562 88.523438 117.488281 88.398438 C 117.375 88.285156 117.195312 88.074219 117.082031 87.945312 C 116.640625 87.417969 115.21875 85.816406 114.515625 85.070312 C 114.109375 84.628906 113.605469 84.0625 113.382812 83.800781 C 113.164062 83.53125 112.832031 83.160156 112.652344 82.957031 C 112.472656 82.753906 112.117188 82.347656 111.863281 82.054688 C 111.605469 81.761719 111.191406 81.296875 110.9375 81.039062 C 110.6875 80.777344 110.230469 80.257812 109.921875 79.902344 C 109.621094 79.535156 109.167969 79.023438 108.914062 78.765625 C 108.664062 78.496094 108.324219 78.121094 108.160156 77.925781 C 107.996094 77.730469 107.625 77.308594 107.332031 76.992188 C 106.195312 75.742188 105.617188 75.089844 105.046875 74.425781 C 104.324219 73.578125 103.429688 72.582031 102.945312 72.078125 C 102.742188 71.867188 102.433594 71.523438 102.253906 71.304688 C 102.074219 71.09375 101.855469 70.832031 101.765625 70.734375 C 101.285156 70.199219 100.359375 69.167969 100.179688 68.980469 C 100.066406 68.859375 99.6875 68.421875 99.335938 68 C 98.980469 67.574219 98.636719 67.175781 98.5625 67.113281 C 98.378906 66.933594 97.296875 65.722656 96.605469 64.917969 C 96.054688 64.269531 95.445312 63.585938 94.289062 62.320312 C 94.023438 62.027344 93.582031 61.53125 93.316406 61.230469 C 93.046875 60.929688 92.699219 60.546875 92.535156 60.386719 C 92.382812 60.214844 92.210938 60.027344 92.171875 59.953125 C 92.097656 59.824219 90.40625 57.9375 89.617188 57.109375 C 89.414062 56.898438 89.203125 56.65625 89.140625 56.574219 C 89.074219 56.492188 88.855469 56.242188 88.652344 56.015625 C 88.449219 55.792969 88.074219 55.371094 87.832031 55.085938 C 87.585938 54.804688 87.296875 54.476562 87.179688 54.355469 C 87.066406 54.234375 86.832031 53.964844 86.652344 53.746094 C 86.472656 53.527344 86.199219 53.21875 86.042969 53.054688 C 85.890625 52.902344 85.636719 52.617188 85.484375 52.445312 C 85.335938 52.269531 85.042969 51.933594 84.832031 51.714844 C 84.628906 51.488281 84.320312 51.148438 84.160156 50.945312 C 83.996094 50.742188 83.753906 50.449219 83.605469 50.292969 C 83.46875 50.140625 83.144531 49.773438 82.890625 49.488281 C 82.640625 49.203125 82.296875 48.839844 82.136719 48.675781 C 81.980469 48.515625 81.597656 48.09375 81.289062 47.734375 C 80.988281 47.375 80.6875 47.027344 80.625 46.960938 C 80.332031 46.636719 79.769531 46.011719 79.234375 45.425781 C 78.902344 45.070312 78.527344 44.640625 78.390625 44.46875 C 78.261719 44.296875 77.941406 43.941406 77.691406 43.664062 C 77.429688 43.386719 76.96875 42.875 76.644531 42.527344 C 76.328125 42.175781 75.894531 41.699219 75.691406 41.476562 C 75.488281 41.25 75.320312 41.046875 75.320312 41.023438 C 75.320312 41 75.164062 40.8125 74.976562 40.609375 C 74.78125 40.40625 74.351562 39.933594 74.019531 39.5625 C 73.6875 39.195312 73.351562 38.828125 73.289062 38.757812 C 73.214844 38.683594 72.960938 38.390625 72.726562 38.105469 C 72.320312 37.617188 72.003906 37.261719 71.644531 36.878906 C 71.515625 36.742188 70.445312 35.539062 69.695312 34.695312 C 69.09375 34.019531 68.210938 33.042969 67.601562 32.386719 C 67.265625 32.019531 66.886719 31.605469 66.746094 31.460938 C 66.617188 31.3125 66.421875 31.109375 66.324219 31.019531 C 66.136719 30.851562 66.0625 30.386719 66.210938 30.386719 C 66.25 30.386719 66.40625 30.289062 66.542969 30.160156 C 66.691406 30.039062 66.925781 29.84375 67.0625 29.730469 C 67.347656 29.492188 69.5 27.78125 69.753906 27.59375 C 69.84375 27.519531 70.101562 27.332031 70.320312 27.160156 C 70.550781 26.992188 70.816406 26.804688 70.929688 26.746094 C 71.046875 26.691406 71.3125 26.503906 71.539062 26.324219 C 71.761719 26.15625 72.070312 25.941406 72.230469 25.863281 C 72.386719 25.78125 72.644531 25.609375 72.808594 25.488281 C 72.96875 25.359375 73.214844 25.195312 73.351562 25.121094 C 73.492188 25.050781 73.847656 24.839844 74.140625 24.660156 C 75.117188 24.074219 75.269531 23.992188 76.171875 23.53125 C 76.667969 23.277344 77.121094 23.035156 77.1875 22.992188 C 77.464844 22.832031 78.707031 22.269531 78.910156 22.222656 C 79.03125 22.1875 79.171875 22.117188 79.226562 22.050781 C 79.277344 21.984375 79.375 21.9375 79.445312 21.9375 C 79.511719 21.9375 79.714844 21.871094 79.902344 21.78125 C 80.28125 21.613281 80.910156 21.359375 81.332031 21.207031 C 81.484375 21.15625 81.851562 21.019531 82.144531 20.90625 C 82.4375 20.800781 82.859375 20.660156 83.078125 20.597656 C 83.304688 20.539062 83.597656 20.449219 83.726562 20.402344 C 84.175781 20.246094 84.785156 20.0625 85.191406 19.953125 C 85.417969 19.898438 85.671875 19.816406 85.757812 19.769531 C 85.847656 19.71875 86.109375 19.65625 86.328125 19.621094 C 86.554688 19.589844 86.808594 19.523438 86.890625 19.484375 C 86.96875 19.433594 87.296875 19.371094 87.613281 19.328125 C 87.921875 19.289062 88.222656 19.222656 88.277344 19.175781 C 88.335938 19.125 88.699219 19.054688 89.097656 19.003906 C 89.496094 18.957031 89.96875 18.875 90.148438 18.808594 C 90.324219 18.753906 90.707031 18.679688 91 18.65625 C 91.292969 18.628906 91.746094 18.558594 92.015625 18.492188 C 92.285156 18.425781 93.347656 18.328125 94.371094 18.28125 C 95.402344 18.222656 96.476562 18.152344 96.769531 18.117188 C 97.566406 18.03125 99.6875 18.03125 100.359375 18.117188 Z M 65.375 32.027344 C 65.773438 32.582031 66.625 33.582031 67.4375 34.457031 C 67.59375 34.628906 67.796875 34.847656 67.875 34.953125 C 67.957031 35.058594 68.234375 35.359375 68.476562 35.628906 C 68.722656 35.894531 69.109375 36.320312 69.339844 36.570312 C 69.566406 36.824219 69.957031 37.238281 70.199219 37.503906 C 70.445312 37.765625 70.777344 38.148438 70.929688 38.34375 C 71.085938 38.535156 71.328125 38.8125 71.460938 38.953125 C 71.597656 39.089844 71.824219 39.347656 71.980469 39.527344 C 72.132812 39.707031 72.554688 40.179688 72.921875 40.585938 C 73.28125 40.984375 73.757812 41.535156 73.976562 41.804688 C 74.199219 42.070312 74.488281 42.394531 74.628906 42.535156 C 74.757812 42.664062 74.976562 42.90625 75.109375 43.0625 C 75.230469 43.21875 75.503906 43.535156 75.71875 43.753906 C 75.921875 43.980469 76.292969 44.402344 76.539062 44.6875 C 76.78125 44.972656 77.113281 45.34375 77.269531 45.515625 C 77.421875 45.679688 77.738281 46.027344 77.960938 46.289062 C 78.1875 46.539062 78.730469 47.148438 79.179688 47.636719 C 79.625 48.125 80.113281 48.675781 80.257812 48.863281 C 80.414062 49.042969 80.558594 49.214844 80.59375 49.238281 C 80.625 49.261719 80.902344 49.570312 81.210938 49.929688 C 81.519531 50.285156 81.867188 50.667969 81.980469 50.78125 C 82.09375 50.894531 82.371094 51.203125 82.589844 51.464844 C 82.816406 51.730469 83.070312 52.015625 83.160156 52.105469 C 83.242188 52.203125 83.71875 52.738281 84.207031 53.300781 C 84.703125 53.859375 85.214844 54.429688 85.351562 54.558594 C 85.484375 54.699219 85.710938 54.941406 85.839844 55.09375 C 86.75 56.175781 87.53125 57.0625 88.894531 58.574219 C 89.660156 59.417969 91.082031 61.003906 91.339844 61.304688 C 91.753906 61.773438 92.964844 63.132812 93.203125 63.390625 C 93.355469 63.554688 93.699219 63.9375 93.964844 64.234375 C 94.234375 64.535156 94.671875 65.023438 94.941406 65.324219 C 95.957031 66.4375 96.589844 67.160156 96.816406 67.4375 C 96.9375 67.59375 97.191406 67.882812 97.378906 68.085938 C 97.558594 68.289062 97.980469 68.761719 98.3125 69.144531 C 98.644531 69.515625 98.996094 69.898438 99.085938 69.988281 C 99.171875 70.085938 99.320312 70.257812 99.410156 70.378906 C 99.5 70.5 99.914062 70.972656 100.328125 71.433594 C 101.871094 73.132812 102.132812 73.425781 102.734375 74.132812 C 103.074219 74.523438 103.398438 74.894531 103.457031 74.953125 C 103.511719 75.011719 103.773438 75.300781 104.039062 75.609375 C 105.074219 76.78125 105.917969 77.722656 106.152344 77.960938 C 106.292969 78.097656 106.511719 78.339844 106.640625 78.496094 C 107.511719 79.535156 108.710938 80.875 109.640625 81.851562 C 109.808594 82.039062 110.132812 82.402344 110.355469 82.671875 C 110.761719 83.160156 111.765625 84.296875 112.085938 84.613281 C 112.171875 84.710938 112.449219 85.019531 112.695312 85.3125 C 112.9375 85.597656 113.199219 85.898438 113.261719 85.960938 C 113.546875 86.261719 114.292969 87.09375 114.523438 87.351562 C 115.074219 87.984375 117.195312 90.34375 117.648438 90.835938 C 117.851562 91.066406 118.671875 91.976562 119.015625 92.375 C 119.414062 92.828125 120.144531 93.625 120.414062 93.910156 C 120.566406 94.070312 120.867188 94.421875 121.078125 94.679688 C 121.429688 95.121094 122.769531 96.597656 123.140625 96.964844 C 123.230469 97.0625 123.34375 97.191406 123.386719 97.265625 C 123.425781 97.335938 123.664062 97.621094 123.90625 97.890625 C 124.148438 98.15625 124.554688 98.613281 124.800781 98.890625 C 125.042969 99.164062 125.417969 99.578125 125.621094 99.808594 C 125.824219 100.035156 126.117188 100.367188 126.269531 100.539062 C 126.59375 100.914062 126.789062 101.125 127.707031 102.074219 C 128.457031 102.855469 128.480469 102.910156 128.113281 103.210938 C 127.636719 103.59375 127.042969 104.03125 126.667969 104.285156 C 126.464844 104.414062 126.285156 104.542969 126.261719 104.570312 C 126.164062 104.667969 125.539062 105.113281 125.125 105.390625 C 124.882812 105.542969 124.371094 105.886719 123.988281 106.128906 C 123.605469 106.371094 123.191406 106.640625 123.054688 106.714844 C 122.3125 107.121094 121.890625 107.355469 121.710938 107.476562 C 121.394531 107.679688 119.722656 108.527344 119.089844 108.800781 C 118.761719 108.941406 118.445312 109.109375 118.375 109.167969 C 118.308594 109.234375 118.203125 109.28125 118.136719 109.28125 C 118.082031 109.28125 117.859375 109.355469 117.65625 109.453125 C 117.453125 109.542969 117.136719 109.6875 116.960938 109.769531 C 116.78125 109.851562 116.546875 109.949219 116.429688 109.980469 C 116.316406 110.003906 116.15625 110.085938 116.066406 110.140625 C 115.976562 110.207031 115.855469 110.257812 115.78125 110.257812 C 115.714844 110.257812 115.53125 110.320312 115.375 110.410156 C 115.21875 110.492188 114.960938 110.589844 114.804688 110.621094 C 114.652344 110.65625 114.433594 110.726562 114.320312 110.785156 C 114.203125 110.839844 113.96875 110.921875 113.789062 110.972656 C 113.613281 111.011719 113.359375 111.09375 113.222656 111.132812 C 112.695312 111.328125 112.140625 111.492188 111.679688 111.597656 C 110.726562 111.816406 110.132812 111.980469 109.851562 112.085938 C 109.695312 112.148438 109.363281 112.222656 109.117188 112.253906 C 108.875 112.28125 108.542969 112.351562 108.386719 112.410156 C 108.234375 112.464844 107.84375 112.539062 107.535156 112.554688 C 107.21875 112.578125 106.8125 112.652344 106.640625 112.71875 C 106.460938 112.78125 105.933594 112.878906 105.460938 112.921875 C 104.992188 112.96875 104.316406 113.042969 103.960938 113.09375 C 102.082031 113.328125 98.449219 113.441406 96.363281 113.320312 C 94.03125 113.1875 92.8125 113.101562 92.558594 113.027344 C 92.414062 112.984375 92 112.921875 91.625 112.898438 C 91.261719 112.863281 90.78125 112.792969 90.554688 112.734375 C 90.332031 112.667969 89.910156 112.597656 89.617188 112.5625 C 89.328125 112.539062 88.976562 112.464844 88.832031 112.410156 C 88.691406 112.34375 88.359375 112.28125 88.097656 112.246094 C 87.839844 112.214844 87.417969 112.125 87.15625 112.035156 C 86.90625 111.953125 86.628906 111.882812 86.546875 111.882812 C 86.417969 111.882812 85.589844 111.652344 85.027344 111.457031 C 84.898438 111.417969 84.566406 111.320312 84.296875 111.253906 C 84.027344 111.191406 83.777344 111.109375 83.726562 111.070312 C 83.6875 111.035156 83.523438 110.980469 83.378906 110.945312 C 83.234375 110.914062 83.011719 110.839844 82.890625 110.777344 C 82.769531 110.710938 82.625 110.664062 82.574219 110.664062 C 82.515625 110.664062 82.226562 110.566406 81.925781 110.453125 C 81.617188 110.328125 81.167969 110.160156 80.925781 110.070312 C 80.679688 109.980469 80.332031 109.84375 80.152344 109.761719 C 79.972656 109.679688 79.648438 109.53125 79.421875 109.445312 C 77.457031 108.613281 74.320312 106.933594 72.703125 105.84375 C 72.320312 105.59375 71.988281 105.382812 71.953125 105.382812 C 71.921875 105.382812 71.71875 105.242188 71.5 105.074219 C 71.28125 104.910156 70.898438 104.625 70.65625 104.445312 C 69.890625 103.902344 69.28125 103.4375 68.949219 103.164062 C 68.777344 103.023438 68.574219 102.871094 68.5 102.828125 C 68.085938 102.601562 65.894531 100.644531 64.472656 99.230469 C 63.5625 98.328125 62.585938 97.273438 62.148438 96.710938 C 62.011719 96.542969 61.855469 96.363281 61.796875 96.320312 C 61.742188 96.273438 61.449219 95.90625 61.140625 95.507812 C 60.839844 95.101562 60.539062 94.722656 60.472656 94.65625 C 60.335938 94.5 59.441406 93.292969 58.636719 92.179688 C 58.304688 91.707031 57.445312 90.359375 57.445312 90.292969 C 57.445312 90.269531 57.3125 90.050781 57.160156 89.8125 C 57.003906 89.578125 56.746094 89.140625 56.582031 88.832031 C 56.429688 88.53125 56.199219 88.117188 56.085938 87.914062 C 55.664062 87.15625 54.84375 85.5 54.84375 85.402344 C 54.84375 85.351562 54.769531 85.167969 54.679688 85.003906 C 54.445312 84.566406 54.113281 83.808594 54.113281 83.710938 C 54.113281 83.664062 54.054688 83.582031 53.992188 83.523438 C 53.925781 83.46875 53.867188 83.347656 53.867188 83.25 C 53.867188 83.152344 53.796875 82.941406 53.707031 82.769531 C 53.617188 82.605469 53.542969 82.402344 53.542969 82.324219 C 53.542969 82.25 53.480469 82.054688 53.390625 81.898438 C 53.308594 81.746094 53.21875 81.46875 53.1875 81.289062 C 53.152344 81.113281 53.082031 80.917969 53.039062 80.859375 C 52.992188 80.804688 52.925781 80.625 52.886719 80.453125 C 52.851562 80.292969 52.773438 79.992188 52.699219 79.789062 C 52.453125 79.074219 52.25 78.359375 52.203125 78 C 52.171875 77.796875 52.097656 77.546875 52.039062 77.429688 C 51.984375 77.316406 51.917969 77.03125 51.886719 76.789062 C 51.855469 76.546875 51.789062 76.277344 51.738281 76.179688 C 51.691406 76.089844 51.625 75.742188 51.585938 75.398438 C 51.546875 75.050781 51.464844 74.652344 51.398438 74.5 C 51.34375 74.34375 51.261719 73.914062 51.234375 73.53125 C 51.203125 73.148438 51.128906 72.636719 51.066406 72.394531 C 51.007812 72.148438 50.9375 71.507812 50.902344 70.972656 C 50.871094 70.4375 50.796875 69.746094 50.734375 69.445312 C 50.570312 68.648438 50.570312 62.472656 50.734375 61.5 C 50.796875 61.125 50.871094 60.394531 50.902344 59.882812 C 50.925781 59.371094 51 58.742188 51.066406 58.5 C 51.121094 58.257812 51.195312 57.777344 51.226562 57.445312 C 51.261719 57.109375 51.332031 56.6875 51.390625 56.507812 C 51.457031 56.332031 51.527344 55.964844 51.5625 55.695312 C 51.585938 55.429688 51.683594 55 51.765625 54.730469 C 51.855469 54.46875 51.917969 54.167969 51.917969 54.054688 C 51.917969 53.949219 51.96875 53.761719 52.03125 53.640625 C 52.097656 53.519531 52.171875 53.234375 52.203125 53.015625 C 52.234375 52.789062 52.308594 52.519531 52.367188 52.40625 C 52.421875 52.292969 52.496094 52.039062 52.527344 51.835938 C 52.5625 51.632812 52.632812 51.382812 52.691406 51.269531 C 52.746094 51.15625 52.828125 50.910156 52.859375 50.742188 C 52.894531 50.5625 52.984375 50.285156 53.0625 50.132812 C 53.152344 49.976562 53.21875 49.789062 53.21875 49.726562 C 53.21875 49.652344 53.265625 49.53125 53.332031 49.441406 C 53.390625 49.351562 53.46875 49.148438 53.503906 48.992188 C 53.535156 48.839844 53.632812 48.578125 53.714844 48.425781 C 53.804688 48.269531 53.867188 48.101562 53.867188 48.042969 C 53.867188 47.984375 53.941406 47.800781 54.03125 47.636719 C 54.121094 47.464844 54.195312 47.28125 54.195312 47.222656 C 54.195312 47.164062 54.265625 46.980469 54.355469 46.816406 C 54.4375 46.652344 54.664062 46.183594 54.851562 45.785156 C 55.28125 44.851562 55.542969 44.320312 55.785156 43.914062 C 55.996094 43.550781 56.023438 43.515625 56.144531 43.226562 C 56.191406 43.109375 56.324219 42.875 56.429688 42.695312 C 56.535156 42.519531 56.703125 42.242188 56.792969 42.085938 C 56.882812 41.933594 57.03125 41.6875 57.117188 41.558594 C 57.207031 41.421875 57.320312 41.226562 57.378906 41.113281 C 57.566406 40.746094 58.613281 39.179688 59.371094 38.121094 C 59.824219 37.496094 61.375 35.53125 61.683594 35.1875 C 61.832031 35.035156 62.058594 34.773438 62.179688 34.613281 C 62.488281 34.222656 63.960938 32.589844 64.652344 31.875 C 64.984375 31.523438 65.015625 31.53125 65.375 32.027344 Z M 65.375 32.027344 "/>
</g>
</svg>
