<?xml version="1.0" standalone="no"?> <!DOCTYPE svg PUBLIC "-//W3C//DTD SVG 20010904//EN" "http://www.w3.org/TR/2001/REC-SVG-20010904/DTD/svg10.dtd"> <svg version="1.0" xmlns="http://www.w3.org/2000/svg" width="2400.000000pt" height="1600.000000pt" viewBox="0 0 2400.000000 1600.000000" preserveAspectRatio="xMidYMid meet"> <g transform="translate(0.000000,1600.000000) scale(0.100000,-0.100000)" fill="#74a5d4" stroke="none"> <path d="M11891 13965 c-52 -7 -135 -13 -185 -14 -166 -2 -306 -12 -334 -22 -15 -6 -72 -15 -126 -20 -55 -4 -120 -15 -145 -23 -25 -8 -77 -18 -116 -21 -38 -4 -88 -13 -110 -20 -22 -7 -62 -16 -88 -20 -26 -3 -62 -12 -80 -20 -18 -7 -57 -16 -87 -20 -30 -4 -67 -14 -82 -21 -15 -8 -37 -14 -50 -14 -13 -1 -41 -8 -63 -16 -22 -9 -62 -20 -89 -26 -28 -5 -59 -16 -70 -24 -11 -8 -31 -14 -44 -14 -13 0 -37 -7 -54 -16 -17 -9 -51 -22 -77 -29 -81 -24 -145 -46 -174 -61 -16 -7 -35 -14 -44 -14 -8 0 -27 -6 -41 -14 -15 -8 -56 -27 -92 -41 -36 -15 -83 -35 -105 -45 -22 -10 -67 -30 -100 -45 -68 -30 -289 -141 -352 -176 -140 -79 -335 -198 -361 -222 -10 -9 -23 -17 -29 -17 -6 0 -32 -17 -59 -37 -27 -21 -56 -42 -65 -48 -48 -29 -142 -95 -199 -140 -36 -28 -76 -58 -90 -67 -14 -8 -36 -26 -50 -39 -14 -13 -55 -48 -90 -78 -36 -29 -100 -86 -142 -127 -77 -74 -100 -86 -115 -60 -10 18 -69 88 -109 130 -17 18 -38 43 -46 55 -19 26 -98 116 -183 208 -33 36 -76 83 -95 106 -32 37 -159 180 -250 281 -19 21 -53 58 -75 81 -22 23 -74 82 -115 130 -41 48 -86 100 -100 115 -14 15 -50 55 -80 90 -30 35 -62 70 -70 79 -13 14 -60 69 -183 214 -25 30 -37 36 -55 32 -22 -5 -122 -96 -122 -111 0 -10 98 -126 211 -248 144 -158 197 -216 234 -261 22 -26 49 -58 60 -70 11 -13 45 -51 75 -85 30 -34 87 -97 125 -139 39 -43 95 -105 125 -140 30 -34 60 -68 65 -74 9 -10 153 -169 215 -238 8 -9 40 -45 70 -80 30 -35 83 -92 118 -128 34 -35 62 -72 62 -82 0 -9 -66 -84 -147 -166 -135 -136 -345 -371 -367 -411 -5 -10 -25 -36 -45 -59 -20 -23 -45 -54 -56 -68 -11 -15 -27 -35 -35 -44 -8 -9 -32 -41 -53 -71 -20 -30 -55 -80 -78 -110 -22 -30 -47 -66 -56 -80 -23 -34 -115 -180 -130 -205 -7 -11 -38 -64 -70 -118 -32 -54 -68 -115 -80 -135 -13 -20 -27 -48 -33 -62 -5 -14 -15 -32 -20 -40 -6 -8 -17 -29 -25 -47 -8 -17 -19 -34 -24 -37 -5 -3 -12 -18 -16 -33 -3 -16 -24 -65 -46 -109 -21 -45 -39 -86 -39 -91 0 -6 -6 -16 -14 -22 -8 -7 -18 -27 -22 -44 -4 -18 -15 -48 -25 -67 -11 -19 -19 -42 -19 -51 0 -9 -6 -22 -14 -28 -8 -7 -17 -27 -21 -44 -3 -18 -14 -52 -24 -77 -35 -85 -49 -125 -76 -215 -14 -49 -33 -106 -41 -125 -8 -19 -18 -55 -23 -80 -5 -25 -16 -63 -25 -85 -8 -22 -15 -55 -16 -73 0 -18 -7 -46 -15 -62 -8 -16 -19 -57 -25 -92 -5 -35 -16 -88 -25 -118 -8 -30 -15 -69 -15 -86 0 -17 -6 -49 -14 -70 -7 -22 -17 -73 -21 -114 -4 -41 -13 -106 -21 -145 -7 -38 -18 -137 -24 -220 -6 -82 -15 -206 -20 -275 -11 -154 -11 -457 0 -645 18 -304 30 -443 44 -510 8 -38 17 -101 21 -140 3 -38 12 -92 20 -120 7 -27 17 -75 20 -105 4 -30 12 -75 20 -100 7 -25 16 -69 20 -99 3 -30 11 -64 17 -75 6 -12 17 -50 23 -86 7 -36 17 -78 23 -95 6 -16 16 -50 22 -75 22 -88 40 -145 55 -177 8 -17 15 -42 15 -55 0 -13 9 -41 20 -63 11 -22 20 -46 20 -55 0 -8 9 -32 20 -53 11 -20 20 -45 20 -55 0 -9 9 -34 20 -55 11 -20 20 -44 20 -53 0 -9 8 -33 19 -53 18 -35 60 -125 86 -186 75 -171 301 -595 325 -610 6 -3 10 -15 10 -25 0 -10 8 -26 17 -36 18 -18 21 -22 61 -90 12 -22 51 -79 87 -129 36 -49 70 -100 75 -112 5 -12 16 -30 25 -40 39 -46 86 -104 139 -176 33 -42 69 -88 80 -101 12 -12 37 -43 56 -67 40 -51 71 -86 159 -178 35 -36 93 -100 130 -141 62 -69 160 -166 204 -201 10 -8 49 -43 86 -79 149 -142 402 -346 551 -445 25 -16 52 -37 62 -45 30 -27 44 -37 69 -50 24 -13 77 -47 193 -122 32 -21 64 -38 72 -38 7 0 17 -6 21 -13 13 -22 196 -126 383 -217 58 -28 112 -55 120 -61 8 -5 26 -14 40 -20 14 -6 43 -20 66 -30 23 -11 46 -19 51 -19 6 0 16 -6 22 -14 7 -8 27 -18 44 -22 18 -4 48 -15 67 -25 19 -11 42 -19 50 -19 9 0 26 -7 39 -16 13 -9 37 -20 55 -25 17 -4 63 -20 101 -34 39 -14 113 -40 165 -56 52 -17 109 -37 125 -45 17 -7 50 -16 75 -20 25 -3 55 -12 67 -20 12 -7 41 -17 65 -20 24 -4 65 -15 91 -25 26 -11 62 -19 80 -19 18 0 58 -9 90 -20 31 -11 75 -20 97 -20 22 0 56 -6 75 -14 19 -8 71 -18 117 -21 46 -4 101 -13 123 -21 35 -13 116 -22 470 -54 312 -28 1078 -2 1360 46 50 9 124 20 165 25 41 5 95 16 120 23 25 8 72 17 105 20 34 3 77 12 98 21 20 8 50 15 67 15 17 0 47 7 68 16 20 9 62 22 92 29 100 24 175 46 205 60 17 7 49 16 72 20 23 3 47 13 54 21 6 8 26 14 43 14 17 1 49 9 71 20 22 11 47 19 55 20 8 0 32 9 53 20 20 11 44 20 52 20 9 0 33 9 53 20 60 31 127 60 141 60 7 0 30 9 50 19 72 39 371 181 379 181 5 0 17 9 27 20 10 11 22 20 27 20 9 0 269 150 348 200 25 16 70 44 100 61 64 39 104 68 283 208 72 57 138 112 145 123 21 29 33 21 102 -64 36 -43 92 -110 125 -147 33 -37 92 -103 130 -146 39 -43 81 -90 95 -104 14 -14 47 -53 73 -86 26 -33 67 -80 90 -105 81 -87 312 -344 356 -396 14 -16 56 -65 94 -109 39 -44 87 -103 108 -132 58 -78 68 -78 147 4 58 62 55 74 -35 169 -89 93 -181 192 -203 220 -36 45 -118 142 -152 179 -20 22 -62 70 -95 106 -87 98 -186 209 -204 228 -8 9 -46 52 -84 96 -85 100 -161 183 -281 306 l-93 95 17 27 c10 14 33 38 52 54 195 156 566 537 672 688 4 6 24 30 46 55 42 50 105 129 170 217 23 32 68 93 100 135 31 42 71 98 87 124 17 26 42 66 57 88 15 23 34 55 42 71 17 32 24 44 73 116 18 26 39 63 48 81 8 18 33 65 55 103 22 39 47 84 55 100 8 17 20 37 25 45 6 8 14 26 20 40 5 14 14 32 19 40 15 24 61 128 61 138 0 5 6 15 14 21 8 7 18 27 21 44 4 18 16 46 26 63 10 17 19 40 19 51 0 12 6 26 14 32 8 7 18 27 22 44 4 18 15 48 25 67 11 19 19 42 19 50 0 9 6 25 14 36 8 11 17 38 21 60 4 21 13 49 21 61 7 12 18 39 23 60 13 49 39 128 57 173 8 19 19 58 23 85 5 28 16 68 25 90 8 22 15 51 16 65 0 14 7 38 15 54 8 16 18 54 21 85 4 31 15 89 25 130 11 41 19 89 19 107 0 18 7 53 15 76 8 24 19 86 25 138 5 52 15 115 20 140 29 125 56 794 42 1024 -24 380 -32 482 -46 551 -8 39 -18 99 -21 135 -3 36 -10 79 -16 97 -5 17 -16 69 -24 115 -7 45 -18 101 -24 123 -21 79 -42 171 -52 224 -5 29 -16 66 -24 82 -8 15 -15 41 -15 56 -1 15 -8 46 -16 68 -9 22 -20 60 -26 85 -6 25 -16 54 -23 65 -7 11 -16 39 -20 62 -3 22 -13 49 -20 60 -8 10 -15 27 -15 38 0 11 -8 36 -19 55 -10 19 -21 51 -25 71 -4 21 -13 42 -20 48 -8 7 -17 28 -21 49 -4 20 -12 48 -19 62 -36 72 -56 116 -56 123 0 9 -47 115 -61 137 -5 8 -12 22 -15 30 -14 32 -106 217 -132 265 -15 28 -47 86 -71 130 -24 44 -49 87 -55 95 -7 8 -28 42 -46 75 -19 33 -48 81 -66 106 -17 25 -35 55 -38 67 -4 12 -12 22 -17 22 -5 0 -14 11 -19 25 -10 25 -49 85 -62 95 -4 3 -27 36 -53 74 -61 92 -77 112 -225 292 -226 276 -749 804 -795 804 -4 0 -17 10 -29 23 -12 12 -40 36 -61 54 -22 18 -54 44 -71 58 -18 14 -36 25 -41 25 -5 0 -20 12 -34 26 -13 14 -53 46 -89 70 -206 140 -287 195 -366 245 -125 79 -371 219 -385 219 -7 0 -20 6 -28 14 -9 8 -41 26 -71 41 -30 15 -62 31 -70 36 -8 5 -26 14 -40 20 -14 6 -38 17 -55 24 -16 8 -57 26 -90 40 -33 14 -67 30 -76 35 -9 5 -54 23 -100 41 -46 17 -102 40 -125 50 -22 11 -46 19 -52 19 -7 0 -29 9 -49 20 -21 11 -46 20 -56 20 -10 0 -35 9 -57 20 -22 11 -48 20 -59 20 -10 0 -38 9 -62 20 -24 11 -58 20 -74 20 -17 0 -40 7 -52 15 -11 8 -40 17 -64 21 -24 4 -70 15 -101 25 -32 11 -68 19 -80 19 -13 0 -52 8 -88 19 -99 30 -242 61 -280 61 -19 0 -55 6 -80 14 -25 7 -88 17 -140 21 -52 4 -122 13 -155 20 -33 8 -127 17 -210 20 -82 4 -230 13 -328 21 -210 17 -318 16 -446 -1z m461 -195 c40 -5 161 -14 268 -20 107 -5 224 -15 260 -21 36 -6 117 -16 180 -24 63 -7 129 -18 145 -24 17 -6 71 -17 120 -26 156 -26 229 -42 278 -59 26 -9 56 -16 67 -16 10 0 31 -5 47 -12 27 -11 103 -34 193 -58 25 -7 66 -21 92 -31 26 -11 54 -19 62 -19 9 0 33 -9 53 -20 21 -11 45 -20 53 -20 9 0 24 -6 35 -14 11 -7 31 -17 45 -20 52 -15 138 -50 216 -87 45 -22 85 -39 90 -39 8 0 60 -23 124 -55 14 -7 86 -43 160 -81 74 -37 142 -73 150 -80 8 -7 44 -27 80 -46 36 -18 85 -47 110 -64 25 -17 81 -52 125 -78 44 -26 105 -65 135 -87 30 -22 80 -56 110 -76 30 -20 62 -43 70 -50 8 -7 74 -58 145 -114 269 -211 329 -264 554 -490 148 -148 211 -218 301 -331 28 -35 66 -81 85 -103 86 -98 98 -112 125 -150 15 -22 57 -80 94 -129 36 -49 66 -93 66 -98 0 -5 15 -28 34 -51 18 -23 46 -64 62 -92 15 -27 31 -52 34 -55 10 -9 88 -136 104 -171 9 -19 27 -52 40 -74 41 -69 55 -94 72 -127 8 -18 19 -40 24 -48 10 -17 90 -179 144 -291 20 -41 36 -79 36 -84 0 -5 9 -28 20 -52 43 -93 58 -129 65 -153 3 -14 12 -38 20 -55 27 -62 80 -215 96 -279 5 -21 16 -50 23 -65 8 -14 17 -46 21 -71 4 -25 14 -57 21 -72 8 -15 14 -37 14 -50 1 -13 8 -41 16 -63 8 -22 21 -71 29 -110 7 -38 18 -88 24 -110 27 -107 51 -227 57 -290 4 -38 11 -81 16 -95 5 -14 14 -83 19 -155 5 -71 17 -168 25 -215 19 -101 22 -774 5 -900 -6 -41 -17 -157 -26 -257 -8 -101 -18 -191 -23 -200 -5 -10 -13 -49 -16 -88 -4 -38 -14 -95 -21 -125 -14 -53 -31 -131 -55 -250 -6 -30 -16 -68 -22 -85 -6 -16 -16 -59 -24 -95 -13 -65 -28 -117 -65 -218 -10 -30 -19 -64 -19 -76 0 -12 -6 -30 -14 -41 -7 -11 -17 -36 -21 -55 -4 -19 -16 -51 -26 -70 -11 -19 -19 -42 -19 -50 0 -9 -9 -33 -20 -55 -11 -22 -20 -46 -20 -55 0 -9 -6 -24 -13 -35 -7 -11 -28 -58 -46 -104 -18 -46 -36 -91 -41 -100 -5 -9 -20 -43 -35 -76 -14 -33 -30 -67 -35 -75 -5 -8 -35 -64 -66 -125 -31 -60 -64 -123 -73 -140 -62 -113 -101 -178 -146 -244 -28 -42 -54 -83 -57 -91 -8 -20 -125 -195 -172 -256 -76 -100 -141 -187 -151 -201 -5 -8 -25 -31 -42 -51 -18 -20 -45 -54 -60 -76 -15 -23 -37 -50 -48 -62 -11 -11 -49 -54 -85 -94 -119 -135 -231 -253 -404 -427 -188 -190 -195 -193 -239 -128 -26 38 -94 117 -193 223 -40 43 -88 97 -109 122 -20 25 -60 70 -89 101 -61 67 -132 145 -166 185 -14 16 -61 70 -105 119 -44 50 -93 105 -110 124 -16 18 -48 53 -70 77 -22 23 -65 71 -95 105 -161 184 -284 322 -316 353 -11 12 -54 59 -95 105 -41 46 -85 96 -99 111 -14 14 -36 40 -50 56 -54 65 -229 262 -316 354 -50 54 -112 124 -139 156 -27 33 -68 79 -90 104 -22 25 -66 75 -97 111 -32 36 -83 93 -114 125 -31 32 -87 96 -125 140 -37 45 -93 108 -124 140 -31 33 -73 79 -93 103 -20 24 -66 76 -102 115 -140 154 -211 234 -281 316 -89 104 -199 227 -259 289 -25 26 -63 68 -85 95 -22 26 -49 58 -60 70 -59 66 -173 193 -195 216 -14 15 -61 69 -104 121 -44 52 -86 101 -95 109 -23 22 -156 171 -241 270 -68 80 -143 164 -285 320 -33 36 -87 97 -120 134 -33 37 -76 84 -96 104 -19 21 -40 44 -45 53 -9 16 -217 248 -314 350 -25 26 -51 56 -59 66 -8 10 -35 41 -60 69 -25 27 -71 79 -101 114 -30 35 -66 75 -80 90 -14 15 -43 48 -65 75 -22 27 -56 65 -75 85 -19 19 -50 54 -69 75 -18 22 -54 63 -80 90 -25 28 -63 70 -83 95 -20 25 -50 61 -68 80 -17 19 -57 64 -88 99 -31 35 -73 80 -93 100 -19 20 -66 72 -104 116 -37 44 -74 87 -82 95 -36 40 -105 117 -171 189 -41 44 -87 97 -104 118 -16 21 -55 65 -86 99 -32 34 -89 97 -129 140 -39 43 -92 102 -117 129 -25 28 -46 53 -46 56 0 3 -19 26 -42 51 -24 25 -77 83 -118 129 -41 45 -82 90 -90 99 -9 9 -40 45 -69 80 -50 60 -89 104 -133 151 -16 17 -148 165 -240 269 -74 83 -183 203 -258 284 -41 45 -88 96 -105 114 -16 18 -40 43 -52 54 -23 21 -32 78 -14 78 5 0 24 12 41 28 18 15 47 39 64 53 35 29 300 240 331 263 11 9 43 32 70 53 28 21 61 44 75 51 14 7 47 30 75 52 27 21 65 47 85 57 19 10 51 31 71 46 20 16 50 36 67 45 17 9 61 35 97 57 120 72 139 82 250 139 61 31 117 61 125 66 34 20 187 89 212 95 15 4 32 13 39 21 6 8 18 14 27 14 8 0 33 8 56 19 47 21 124 52 176 71 19 6 64 23 100 37 36 13 88 30 115 38 28 7 64 18 80 24 55 19 130 42 180 55 28 7 59 17 70 23 11 6 43 14 70 18 28 4 59 12 69 17 10 6 50 14 89 19 38 5 75 13 82 19 7 6 52 15 101 21 49 6 107 16 129 24 22 7 69 16 105 19 36 3 92 12 125 20 33 8 164 20 290 26 127 7 259 16 295 20 98 11 359 11 442 0z m-4306 -1712 c49 -68 154 -191 254 -299 19 -21 44 -48 54 -61 10 -13 44 -50 74 -83 30 -33 78 -85 106 -116 28 -31 76 -82 106 -115 30 -32 71 -79 90 -103 19 -24 49 -58 65 -75 17 -17 45 -49 64 -71 19 -22 71 -80 116 -130 44 -49 103 -117 130 -150 27 -33 63 -73 80 -90 16 -16 43 -46 59 -65 15 -19 49 -58 75 -85 25 -28 71 -80 101 -115 30 -35 71 -81 90 -102 19 -20 58 -63 85 -95 28 -31 95 -106 150 -166 55 -60 115 -128 133 -151 19 -22 37 -43 41 -46 4 -3 38 -41 76 -85 38 -44 81 -91 95 -105 14 -14 48 -52 75 -84 28 -33 59 -68 70 -79 10 -12 69 -78 129 -147 61 -69 124 -139 141 -155 16 -17 44 -47 60 -66 112 -133 208 -242 376 -428 94 -104 269 -299 301 -336 51 -58 200 -225 229 -257 19 -20 61 -67 94 -104 33 -37 87 -97 120 -134 125 -137 203 -226 231 -260 15 -19 46 -55 69 -80 22 -25 74 -83 115 -130 41 -46 84 -93 95 -104 11 -12 29 -33 40 -48 11 -15 62 -73 113 -130 190 -209 222 -245 296 -332 42 -48 82 -94 89 -101 7 -7 39 -43 72 -81 127 -144 231 -260 260 -289 17 -17 44 -47 60 -66 107 -128 255 -293 369 -413 21 -23 61 -68 88 -101 50 -60 174 -200 213 -239 11 -12 45 -50 75 -86 30 -35 62 -72 70 -80 35 -37 127 -139 155 -171 68 -78 329 -368 385 -429 25 -28 126 -140 168 -189 49 -56 139 -154 172 -189 19 -20 56 -63 82 -95 43 -54 208 -236 254 -281 11 -12 25 -28 30 -37 5 -9 34 -44 64 -77 30 -33 80 -89 110 -123 30 -34 76 -85 101 -113 25 -28 61 -69 80 -90 40 -46 64 -72 177 -189 92 -96 95 -103 50 -140 -59 -47 -132 -101 -178 -132 -25 -16 -47 -32 -50 -35 -12 -12 -89 -67 -140 -101 -30 -19 -93 -61 -140 -91 -47 -30 -98 -63 -115 -72 -91 -50 -143 -79 -165 -94 -39 -25 -245 -129 -323 -163 -40 -17 -79 -38 -88 -45 -8 -8 -21 -14 -29 -14 -7 0 -34 -9 -59 -21 -25 -11 -64 -29 -86 -39 -22 -10 -51 -22 -65 -26 -14 -3 -34 -13 -45 -20 -11 -8 -26 -14 -35 -14 -8 0 -31 -8 -50 -19 -19 -10 -51 -22 -70 -26 -19 -4 -46 -13 -60 -20 -14 -7 -43 -17 -65 -23 -22 -5 -53 -15 -70 -20 -65 -24 -133 -44 -190 -57 -117 -27 -190 -47 -225 -60 -19 -8 -60 -17 -90 -21 -30 -3 -71 -12 -90 -19 -19 -7 -67 -16 -105 -18 -39 -3 -89 -12 -110 -20 -22 -8 -87 -20 -145 -25 -58 -6 -141 -15 -185 -21 -231 -29 -678 -43 -935 -28 -287 16 -437 27 -468 36 -18 5 -69 13 -115 16 -45 4 -104 13 -132 20 -27 8 -79 17 -115 21 -36 3 -79 12 -97 19 -17 8 -58 16 -90 20 -32 4 -84 15 -116 26 -31 10 -65 19 -75 19 -16 0 -118 28 -187 52 -16 5 -57 17 -90 25 -33 8 -64 18 -70 23 -5 4 -25 11 -43 15 -18 4 -45 13 -60 21 -15 8 -33 14 -39 14 -7 0 -43 12 -80 26 -38 15 -93 36 -123 47 -30 11 -73 28 -95 38 -22 10 -62 28 -90 39 -242 102 -628 309 -827 443 -47 31 -88 57 -92 57 -4 0 -29 17 -56 38 -27 20 -74 55 -104 77 -94 67 -169 124 -210 158 -21 17 -46 36 -55 41 -51 28 -321 269 -496 443 -112 111 -232 241 -286 310 -17 21 -36 43 -43 48 -7 6 -43 51 -81 100 -37 50 -74 97 -82 105 -17 19 -127 168 -226 305 -41 58 -147 224 -147 232 0 3 -16 30 -35 59 -19 29 -51 83 -71 121 -19 37 -47 88 -61 113 -52 93 -153 297 -153 309 0 6 -9 29 -20 49 -29 54 -70 147 -70 159 0 6 -7 16 -15 23 -8 7 -15 22 -15 34 0 12 -9 38 -20 59 -11 20 -20 45 -20 55 0 9 -8 33 -19 52 -10 19 -21 53 -25 75 -4 22 -13 46 -18 53 -6 7 -14 29 -19 50 -4 20 -14 57 -23 82 -30 88 -55 176 -61 220 -4 25 -13 56 -20 70 -7 14 -15 49 -19 79 -4 30 -12 63 -18 75 -6 11 -14 54 -19 96 -5 43 -15 92 -23 111 -7 19 -17 72 -20 119 -4 47 -13 110 -21 140 -7 30 -16 109 -20 175 -4 66 -13 151 -21 188 -20 98 -20 858 0 978 8 46 17 136 21 199 3 63 12 140 20 170 7 30 16 89 20 130 4 41 13 93 20 115 8 22 17 67 21 100 3 33 15 86 25 119 11 32 19 69 19 83 0 13 6 36 14 51 8 15 17 50 21 77 4 28 13 61 20 75 7 14 16 45 20 70 4 25 13 56 20 70 7 14 17 44 21 65 4 22 15 56 25 75 11 19 19 42 19 50 0 9 6 24 14 35 7 11 17 36 21 55 4 19 16 51 26 70 11 19 19 40 19 47 0 7 9 30 20 50 11 21 20 44 20 51 0 7 9 30 20 50 10 20 38 78 61 127 53 115 85 180 115 230 26 45 29 49 44 85 6 14 22 43 35 65 13 22 34 56 45 75 11 19 29 49 40 65 11 17 25 41 32 55 23 45 152 238 245 368 56 77 247 319 285 361 18 19 46 51 61 71 38 48 219 249 304 337 41 43 45 42 89 -19z"/> </g> </svg>